<svg xmlns="http://www.w3.org/2000/svg" width="238.928" height="102.129" viewBox="0 0 238.928 102.129"><defs><style>.a{fill:#010005;}.b{fill:#fff;}.c,.d{fill:#d2d0d2;}.d{stroke:#000;}</style></defs><g transform="translate(-0.054 -0.01)"><path class="a" d="M176.473,56.06a29.656,29.656,0,0,0,1.307-10.527c-.087-5.07-.087-10.183-.392-15.253-.261-4.168-1.568-8.078-4.923-11a5.943,5.943,0,0,1-1.917-5.543c.218-1.719,1.394-2.449,3.093-2.793,5.1-.945,9.192,1.5,13.375,3.652a8.219,8.219,0,0,1,4.574,8.078c-.131,5.929,0,11.9-.784,17.745a153.548,153.548,0,0,0-.871,18.991c0,.473-.087,1.289.218,1.676,2.048-.9,2.309-5.285,2.178-7.132-.174-2.492-.915-4.984-1.089-7.519-.218-3.179,1.525-4.984,4.792-5.113,2.309-.086,4.661,0,6.97.086,1.089.043,1.7.516,1.743,1.8.261,4.769.61,9.538,1,14.308.131,1.547.7,2.836,2.4,1.418a4.476,4.476,0,0,0,1.743-3.609c0-3.566-.087-7.132-.087-10.7a3.96,3.96,0,0,1,3.224-4.039c2.309-.516,4.661-1.031,6.97-1.5,2.44-.473,3.659.473,3.616,2.922-.044,2.879-.218,5.757-.3,8.636-.044,1.719-.087,3.394,0,5.113.087,1.676.436,3.308.653,4.984.087.215.174.3.261.3a1.045,1.045,0,0,0,.653-.473,4.057,4.057,0,0,0,.392-1.16c.349-1.89.741-3.781,3.05-4.211,2.353-.473,4.879-.816,6.666,1.332,3.311,4.511,4.226,7.562,3.877,11.987a6.873,6.873,0,0,1-2.614,4.382,14.842,14.842,0,0,1-4.531,2.406,54.567,54.567,0,0,1-10.586,1.848A8.9,8.9,0,0,1,215.9,75.48c-.828-.516-.871-1.16,0-1.719a7.71,7.71,0,0,0,1.7-1.117,7.22,7.22,0,0,0,1.568-2.75,30.694,30.694,0,0,1-4.139,3.437c-3.79,2.105-7.8,3.394-12.155,1.933-1.525-.516-2.962-1.16-4.487-1.633a2.234,2.234,0,0,0-1.481.172c-3.964,1.762-8.234,1.848-12.416,1.676-1.568-.086-3.267-.43-4.269-2.019a1.752,1.752,0,0,0-1.568-.129c-2.919,1.246-5.794,2.363-9.5,1.16.174,1.5.392,2.492.436,3.523.218,5.543-.131,11.042-2.222,16.2a9.452,9.452,0,0,1-4.574,5.07,28.782,28.782,0,0,1-11.893,2.836,30.979,30.979,0,0,1-19.125-5.843c-1.481-1.031-1.525-1.633-.3-2.965,2.048-2.234,4.052-4.468,6.012-6.746,1.176-1.375,2.353-2.277,4.357-2.019,4.792.644,8.844-1.547,12.9-3.738,3.964-2.148,7.188-5.2,10.456-8.163a17.085,17.085,0,0,0,3.18-4.382c-2.048,1.375-2.875,3.094-4.487,4.683-2.657,2.621-6.056,2.664-9.454,2.406-4.008-.3-7.8-1.332-10.674-4.511-1.176,3.179-2.353,6.144-3.4,9.109-1.525,4.382-7.1,10.741-10.586,14.179a18.5,18.5,0,0,1-5.838,3.824c-6.23,2.578-19.561,3.652-26.183,3.523-5.751-.129-10.891-1.933-14.856-6.316-4.574-5.07-4.836-15.124,1.568-19.721.653-.473,2.048-1.59,2.483-1.976a9.81,9.81,0,0,1-6.23-6.015,18.562,18.562,0,0,1-2.44,4.34c-2.788,3.265-7.972,4.64-12.024,4.254-1.481-.129-2.962-.172-4.444-.172a11.853,11.853,0,0,1-4.182-.687,10.56,10.56,0,0,1-6.666-5.972A39.867,39.867,0,0,1,47.693,72c-7.929,5.285-22,6.4-31.367,6.144A72.034,72.034,0,0,1,2.69,76.6C.163,75.953-.359,75.051.207,72.731,1.6,66.93,8.267,47.123,11.273,35.05c.479-1.89.871-3.824,1.525-5.628.741-2.148,2.048-2.621,4.313-3.179a22.546,22.546,0,0,0,2.44-.644,6.278,6.278,0,0,1,4.749-.086c1.96.73,2.135,1.676,1.873,3.824-.261,2.234-.871,4.468-1.351,6.917a10.793,10.793,0,0,0,7.188-5.07c2.614-4.125-.958-4.3-4.313-5.328-5.1-1.547-10.848-1.933-15.291-3.394C3.387,19.367-.185,6.263,9.356,1.494,12.623-.139,20.247-.74,23.21,1.279a6.226,6.226,0,0,1,2.657,4.554c.3,2.363-.174,6.359-2.657,7.347-1.307.516-5.141.172-5.707-1.332-.566-1.461.349-2.707.828-3.867a1.818,1.818,0,0,0-1.22.43,4.365,4.365,0,0,0-.958,3.265,2.416,2.416,0,0,0,.3.945c1.22,1.848,7.537,1.8,9.933,1.89a51.785,51.785,0,0,1,14.289,2.105,15.54,15.54,0,0,1,10.5,9.452,12.946,12.946,0,0,1-4.705,15.6c-.653.43-1.307.859-2,1.246a20.066,20.066,0,0,1,7.275,7c2.222-4,5.1-7.6,11.98-9.195,5.62-1.332,15.727.773,16.381,7.82,1.046-1.332,2.048-2.535,2.919-3.781,2.483-3.566,5.707-5.5,9.8-5.586a8.669,8.669,0,0,1,4.313.859,7.821,7.821,0,0,0,2.745.687c3.093.43,5.4,2.234,7.363,4.511.915,1.117.392,2.363-.61,3.308-.871.859-5.62,2.148-6.927,2.019a3.592,3.592,0,0,1-1.96-.9c-2.527-2.406-3.485-2.32-5.62.9a43.4,43.4,0,0,0,8.147,1.246c4.487.387,6.143-1.719,8.887-4.812,2.614-2.879,5.315-6.66,8.06-8.636,4.182-2.965,11.327-3.437,15.509-1.2,1.873.773,7.842.773,8.19,8.206.218,1.719-.958,2.578-2.614,2.578-5.707,0-11.458,0-15.814,4.683-2.048,2.191-2.919,6.187-1.7,8.722.871,1.719,1.743,2.32,3.529,1.5a11.219,11.219,0,0,0,4.008-3.222,10.954,10.954,0,0,0,1.873-4.511c1.176-6.058,6.23-7.648,11.022-5.027a93.815,93.815,0,0,1,6.927-6.832c3.79-3.051,8.277-3.437,13.113-2.707,2.875.43,5.1,1.332,6.448,4,.174.3,1.133.43,1.7.344,3.877-.559,6.4,1.59,6.448,5.457v5.671C175.95,56.533,176.168,56.4,176.473,56.06Zm-100.2-5.929c2.4-1.5,2.44-3.308,1.089-4.941a9.667,9.667,0,0,0-4.966-3.008c-9.367-1.719-15.9,5.929-17.905,13.835-.479,1.89-1.612,1.5-2-.043-1.394-5.5-4.444-9.667-9.846-11.944-1.743-.73-.174-1.633.784-2.019,5.228-2.234,7.929-7.6,7.624-11.472a14.2,14.2,0,0,0-2.265-6.874c-2.962-4.468-7.929-6.23-13.026-7.218-6.056-1.16-10.543-.773-16.293-1.289-2.353-.215-3.659-1.2-4.182-2.535-.523-1.418-.087-4.168,1.176-5.156a2.265,2.265,0,0,1,2.527-.387,1.26,1.26,0,0,1,.436,1.5c-.087.258-1.133,1.719-.741,2.75a2.841,2.841,0,0,0,1.7.773c1.046.172,2.875.129,3.616-.773.915-1.117,1.176-4.683.741-6.1A5.449,5.449,0,0,0,22.382,2.1a11.2,11.2,0,0,0-7.929-.387A9.326,9.326,0,0,0,9.007,5.79c-2.788,4.554-.044,10.655,4.269,13.319,3.224,2.019,14.812,2.879,20,4.34,3.747.773,5.359,2.234,5.228,5.8-.087,3.179-3.05,6.4-5.838,7.691a62.17,62.17,0,0,1-7.972,2.75c-1.089.344-1.612-.387-1.394-1.461.61-3.179,1.263-6.316,1.83-9.5a2.565,2.565,0,0,0-.044-1.031c-.218-.9-1.83-1.418-3.006-1.461A3.907,3.907,0,0,0,18.2,29.335c-.566,2.062-.741,4.254-1.22,6.359-1.917,8.55-3.834,17.143-5.881,25.65-1.046,4.3-2.353,8.55-3.616,12.847-.392,1.289.392,1.676,1.438,1.89a50.6,50.6,0,0,0,7.668,1.031c7.668.43,27.969-1.332,32.848-8.292,1.351-1.933,2.222-4.125,3.4-6.187,1-1.762,1.7-.644,1.83.687.261,2.406,1.612,6.617,3.355,8.12a13.586,13.586,0,0,0,8.844,3.566c4.052,0,8.016-.816,10.412-4.082A19.718,19.718,0,0,0,80.89,56.962c-.044-.559.087-1.418.436-1.59a3.181,3.181,0,0,1,2.091-.172c.261.086.349,1.074.349,1.676.044,2.234-.3,4.511.131,6.7.784,4.168,2.4,7.949,7.363,8.937a23.94,23.94,0,0,0,4.574.644c5.271.043,10.456-2.148,11.85-7.992.653-2.75,1.22-5.5,1.655-8.249.174-1.289.958-1.375,1.786-1.16.392.086.828.945.784,1.375-.218,1.762-.653,3.523-1,5.285-.61,3.437.044,6.488,2.745,8.98a12.278,12.278,0,0,0,7.188,3.437c5.925.816,10.412-.9,13.636-5.843.61-.945,1.83-.559,1.7.43a12.1,12.1,0,0,1-1.394,5.07,23.562,23.562,0,0,1-6.4,7.476c-.653.473-.915.559-1.612.129-5.533-3.351-11.2-6.1-17.818-6.874-5.184-.6-10.281-1.074-15.379.473-4.444,1.332-7.537,4.125-8.626,8.593-1.133,4.726.653,8.636,4.531,11.6a19.457,19.457,0,0,0,11.806,3.91c6.578.043,15.248-.172,21.391-2.707a19.858,19.858,0,0,0,7.929-5.714c3.616-4.211,7.493-8.206,9.367-13.577a77.663,77.663,0,0,0,2.658-8.163,24.4,24.4,0,0,0,.392-6.187,51.806,51.806,0,0,0-.566-5.156,38.288,38.288,0,0,0-.784-4.984c-.741-2.621-2-3.351-5.01-3.008-.131.6-.3,1.246-.436,1.89-.523,2.621-1,5.285-1.568,7.906-.828,3.867-3.4,6.316-8.321,6.1a7.481,7.481,0,0,1-7.319-8.378c.915-6.66,6.1-9.8,11.98-10.655,2.483-.344,5.01-.215,7.493-.43a1.621,1.621,0,0,0,1.176-.988,6.542,6.542,0,0,0-3.485-6.445,15.205,15.205,0,0,0-8.408-.9c-6.317,1.2-10.978,4.855-14.42,10.1-1.83,2.793-4.487,4.683-7.711,4.683-4.487,0-8.931-.816-13.418-1.375a1.5,1.5,0,0,1-1-2.363c1.83-2.965,7.058-4.6,9.584-1.676a3.592,3.592,0,0,0,.915.73c1.089.644,3.355,0,4.313-1.16.871-1.031.087-1.676-.523-2.277a10.738,10.738,0,0,0-8.234-3.48,15.877,15.877,0,0,0-9.236,3.566c-1.438,1.289-2.962,3.222-4.618,4.425a23.5,23.5,0,0,1-14.551,4.941c-1.83,0-4.879-1.117-4.792-3.308a7.359,7.359,0,0,1,.7-2.234c.958-2.148,3.224-2.363,5.315-2.277C72.7,46.822,74.835,47.682,76.272,50.131ZM219.167,73.676a9.34,9.34,0,0,0,3.05,1.59c1.96.516,6.97-.387,8.8-1.031,3.964-1.418,7.319-3.437,6.927-7.992a20.773,20.773,0,0,0-4.1-9.195,2.372,2.372,0,0,0-2.44-.988c-1.655.387-1.7,2.062-1.873,3.437a3.615,3.615,0,0,1-2.353,3.051c-1.438.6-4.1.258-4.139-1.117-.3-2.621-.653-5.242-.7-7.863-.044-3.652.218-7.347.3-11,.044-1.2-.174-2.492-1.7-2.406a25.355,25.355,0,0,0-5.315,1.074c-1.655.516-2.091,1.633-1.7,3.351a22.519,22.519,0,0,1-.784,14.05,3.957,3.957,0,0,1-3.79,2.793c-1.525,0-4.182-.859-4.531-2.535a26.977,26.977,0,0,1-.392-4.168c-.261-3.652-.436-7.3-.741-10.956a1.542,1.542,0,0,0-.915-1.074c-1.7-.172-3.4-.258-5.1-.3-3.05-.086-2.832.559-2.527,2.965.392,2.664,1.176,5.285,1.612,7.949.392,2.535.349,7.863-1.176,9.71a3.919,3.919,0,0,1-4.531,1.074c-1.7-.73-2.135-2.277-2.135-3.91.044-6.832-.087-13.706.915-20.538a125.217,125.217,0,0,0,.741-15.682c.044-3.222-.523-6.4-3.921-8.035-3.05-1.461-6.186-2.793-9.323-4-1.307-.516-2.178.3-2.265,1.719-.131,1.848,1.176,2.879,2.353,3.91,1.83,1.59,3.267,3.437,3.442,5.843.349,4.984.7,9.968.7,14.952s-.087,9.882-.566,14.995a18.555,18.555,0,0,1-3.355,9.839c-.871,1.289-2.44.859-2.527-.773-.174-3.566-.349-7.089-.349-10.655,0-1.375-.044-3.652-1.133-4.64a6.978,6.978,0,0,0-1.873-1.074c-1.176-.559-1.96,0-2.222,1.5-.218,1.5-.392,3.008-.741,4.468-.958,3.867-2.265,7.562-5.576,10.14a7.4,7.4,0,0,1-7.842.43c-2.657-1.762-3.616-4.3-2.483-7.3a12.3,12.3,0,0,1,9.367-7.6,23.275,23.275,0,0,0,3.224-.43,1.428,1.428,0,0,0,.958-1.8,2.947,2.947,0,0,0-.436-1.074,5.94,5.94,0,0,0-4.923-2.621,14.977,14.977,0,0,0-10.761,4.511,18.607,18.607,0,0,0-5.751,17.057c.871,5.757,4.4,9.968,10.194,10.913,3.006.473,6.1.172,8.277-2.492,1.612-1.976,3.224-3.91,4.923-5.843.828-.988,1.917-.387,1.743.687a9.124,9.124,0,0,1-.871,3.051c-.7,1.16-.174,1.762.653,2.234,2,1.117,4.1,1.933,6.491,1.074,2.309-.859,4.574-1.719,5.751-4.168.349-.687,2.309-1.332,1.96.816a19.215,19.215,0,0,1-.958,2.793,10.889,10.889,0,0,0,5.881,1.933c4.792-.043,9.367-.988,11.632-6.015a1.387,1.387,0,0,1,1.176-.644c.3.043.7.73.7,1.117a30.718,30.718,0,0,1-.523,3.48c1.046.344,2.135.816,3.267,1.074,3.529.773,7.058,1.16,10.064-1.332,1.176-.945,2.091-2.234,3.18-3.308,1.133-1.117,2.135-.258,1.96.73A22.771,22.771,0,0,1,219.167,73.676ZM133.735,92.838a38.983,38.983,0,0,0,4.618,2.793,32.1,32.1,0,0,0,9.672,2.535c5.838.644,11.414.043,16.511-2.922a4.285,4.285,0,0,0,1.917-2.363A59.514,59.514,0,0,0,168.2,83.73a44.083,44.083,0,0,0-.3-8.636c-.218-1.89-1.568-2.148-2.962-.859a46.135,46.135,0,0,1-4.052,3.652c-5.751,4.254-11.588,8.249-19.387,7.562a2.979,2.979,0,0,0-2.135.773C137.525,88.284,135.826,90.389,133.735,92.838ZM17.154,27.66c.131-.516,0-.773-.7-.559-.915.43-2,.988-2.309,1.762a67.072,67.072,0,0,0-1.917,6.574c-1.176,4.425-2.265,8.894-3.572,13.276C6.48,56.017,3.954,63.192,1.906,70.5c-1.176,4.125-.436,4.812,3.7,5.457C10.1,60.013,14.061,43.944,17.154,27.66Zm147.687,20.8c-.871.129-1.655.258-2.4.344-3.964.473-8.234,4.554-8.8,8.507a3.469,3.469,0,0,0,3.05,3.652c2.57.129,4.008-1.676,5.4-3.351C164.274,55.029,164.536,51.806,164.841,48.455Zm11.327,13.233c.131.344.349.43.7.172,1.873-2.75,2.527-4.34,3.006-10.011.131-1.719.218-3.437.3-5.156.174-3.609-.087-7.218-.131-10.827-.044-2.75-.044-5.5-.087-8.249-.044-3.136-.261-6.316-2.875-8.507-2.178-1.8-3.747-3.781-3.355-6.789,0-.086-.131-.172-.392-.516a10.713,10.713,0,0,0-1.351,1.547c-.828,1.5-.349,3.394,1.438,4.984a15.355,15.355,0,0,1,5.01,11.128c.349,5.628.3,11.3.392,16.971a26.966,26.966,0,0,1-1.525,10.14A13.842,13.842,0,0,0,176.168,61.688ZM88.427,73.375a5.108,5.108,0,0,1-1.046,1.2c-.7.644-1.525,1.16-2.265,1.8a11.566,11.566,0,0,0-4.1,12.632c1.351,5.371,5.271,8.421,10.456,10.054-4.879-2.922-8.408-6.574-8.19-12.761.218-6.144,3.616-9.452,8.931-11.9A13.113,13.113,0,0,1,88.427,73.375Zm46.223-1.762a17.481,17.481,0,0,1-8.844,4.34c-3.529.6-8.582-.387-11.763-1.719a11.343,11.343,0,0,1-4.574-3.265c-.61-.73-1.176-1.5-1.568-2.019a9.829,9.829,0,0,1-5.925,4.64,42.242,42.242,0,0,1,23,6.015c.958-2.922,3.311-3.051,5.62-4.3C132.21,74.449,134.171,73.031,134.65,71.613Zm-10.891-7.347c4.792,1.332,7.885.086,9.149-3.523a44.317,44.317,0,0,0,1.525-5.843,43.068,43.068,0,0,0,.523-4.511c-2.614,1.246-3.18,3.308-3.7,5.414C130.25,59.755,128.42,63.063,123.759,64.266ZM25.126,38.4c2.048-.816,4.1-1.5,6.056-2.492,2.353-1.16,4.531-2.707,5.446-5.371.741-2.234.436-4.082-1.394-4.941-2.657-1.289-12.285-2.879-15.553-3.351-4.749-.687-8.277-1.5-11.109-5.5C5.566,12.536,5.3,6.821,9.225,3,5.783,4.458,4.215,8.8,5.348,13.051a12.365,12.365,0,0,0,9.236,8.722c4.836,1.16,9.323,1.461,14.289,2.965.828.258,1.612.516,2.44.773,3.267,1.16,3.79,2.836,1.481,6.445a11.589,11.589,0,0,1-7.014,5.156C24.952,37.542,24.734,37.757,25.126,38.4Zm165.81,23.76c1.743,1.117,3.311.644,4.1-1.16a11.052,11.052,0,0,0,.436-6.917c-.7-3.437-1.307-6.917-1.96-10.4-.087-.387-.261-.344-.479-.086a5.381,5.381,0,0,0-.7,3.308,32.017,32.017,0,0,0,.784,4.468C193.812,55.244,194.422,59.11,190.936,62.161ZM209.1,59.8c-.174.43-.044.6.479.43a3.3,3.3,0,0,0,1.83-1.5,17.26,17.26,0,0,0,1.873-10.1c-.261-2.062-.7-4.125-1.046-6.144-.131-.043-.261-.129-.392-.172a11.2,11.2,0,0,0-.958,2.965c-.087,2.879.087,5.757.131,8.636C211.064,56.017,211.107,58.208,209.1,59.8ZM159.09,99.412c-9.367.859-18.515.816-26.4-5.628-.174.215-.436.43-.653.687-.044.043,0,.215.044.43C140.357,100.744,149.288,102.592,159.09,99.412ZM107.029,51.2A8.3,8.3,0,0,0,112,47.854c1.089-1.418,2.222-2.879,3.442-4.211a24.376,24.376,0,0,1,9.889-6.4c-2.614-.344-6.622,1.246-8.844,3.609-2.657,2.793-5.1,6.144-7.668,8.808C108.336,50.131,107.726,50.646,107.029,51.2ZM75.052,52.838c.349-.3.261-.43-.044-.516-1.046-.086-1.481.129-2.44-.387-2-1.031-3.921-2.234-5.838-3.351-1.568,2.32-1.438,3.91.349,4.511a15.969,15.969,0,0,0,6.056.172A11.079,11.079,0,0,0,75.052,52.838Zm84.125,8.894c-.349.43-.131.559.3.559,5.838-.687,8.147-8.206,8.931-14.608.044-.473-.131-.473-.479-.258-.7.516-1.96,1.547-2.048,2.75C165.407,55.115,163.708,59.153,159.177,61.731Zm-15.6-7.39a42.717,42.717,0,0,1,2.309-4.726,24.023,24.023,0,0,1,3.4-4.425,41.524,41.524,0,0,1,4.226-3.222c-3.18.73-5.968,2.75-8.67,5.886C143.145,49.873,141.795,51.849,143.581,54.341ZM82.066,49.057a41.979,41.979,0,0,0,3.18-3.008,16.193,16.193,0,0,1,6.361-4.726,14.756,14.756,0,0,1,3.485-.859C89.69,39.089,84.593,43.385,82.066,49.057ZM53.575,53.568c1.394-4.34,3.355-7.992,7.188-10.355.174-.172-.087-.215-.261-.172a2.319,2.319,0,0,0-.958.344C56.624,44.8,54.794,47.252,53.27,50A2.907,2.907,0,0,0,53.575,53.568ZM53.052,65.6c-.3.988-1,2.019-.828,2.879.61,2.707,4.574,5.586,7.58,5.757C55.753,72.816,54.4,69.422,53.052,65.6ZM82.2,63.149c-1.525,2.707.523,6.917,3.137,7.906-.61-1.2-1.351-2.492-1.873-3.824C82.938,65.856,82.589,64.481,82.2,63.149Zm49.142,13.706c-2.048.559-4.444.559-5.054,3.136.392.215.871.43,1.307.644A19.435,19.435,0,0,0,131.339,76.855ZM74.617,51.248c.3.086.392-.086.174-.516-1.655-2.277-3.921-3.136-6.1-2.406C70.652,49.271,72.656,50.26,74.617,51.248ZM226.4,61.345c2.353-1.332,1.525-3.48,2.222-5.027C226.617,57.306,226.355,59.025,226.4,61.345Z" transform="translate(0.054 0.01)"/><path class="a" d="M13.857,19.845C8.586,20.661,2.094,19.716.352,14-.345,11.767,0,7.17,1.31,5.065A12.142,12.142,0,0,1,8.455.3a15.357,15.357,0,0,1,6.4.086C25.75,2.874,22.178,18.556,13.857,19.845ZM8.194,17.052c2.962-.644,4.749-2.363,5.359-4.554A7.389,7.389,0,0,0,7.279,3.346C4.447,3.26,2.7,4.463,1.833,6.654.875,9.576.439,14.732,3.75,16.365A7.482,7.482,0,0,0,8.194,17.052Zm.392,1.289C19.477,22.036,26.012,3.9,13.639,1.628c-2.265-.43-4.618-.215-6.056.816,5.446.3,8.408,5.757,7.145,10.441C14.031,15.505,11.853,17.267,8.586,18.341Z" transform="translate(20.56 46.923)"/><path class="a" d="M7.6,10.946c-2.135-.3-5.838-1.762-7.058-3.652C-.63,5.532.241,3.212,1.766,1.966,5.12-.827,12.134-.354,16.012,1.579c1.176.6,2.309,1.289,3.442,1.976a37.107,37.107,0,0,1,3.964,2.879c.915.73.784,1.5-.392,1.848C18.626,9.528,12.178,11.59,7.6,10.946ZM18.538,8.5C14.574,5.747,5.73,3.684,1.156,5.79,1.9,7.852,5.774,9.571,8.518,9.743A31.117,31.117,0,0,0,18.538,8.5ZM1.94,4.071c3.137-.988,11.937-.516,17.905,3.437.479.3,1.394-.086,2.483-.215C14.966.677,5.512.29,1.94,4.071Z" transform="translate(95.647 79.368)"/><path class="a" d="M16.428,5.04c-.3,2.879-1.394,6.273-5.4,8.035A7.721,7.721,0,0,1,0,6.372,23.491,23.491,0,0,1,.7.873C.788.486,1.136-.2,2.356.056c3.18.387,6.317.945,9.5,1.375,1.089.172,2.135.215,3.18.387C16.646,2.119,16.646,2.248,16.428,5.04ZM1.746.916C1.528,2.2,1.224,3.279,1.136,4.4a11.622,11.622,0,0,0,.174,3.48c.174.687.784,1.676,1.394,1.8a7.447,7.447,0,0,0,8.626-6.015,1.083,1.083,0,0,0-.871-1.289C7.671,1.818,4.752,1.388,1.746.916Zm10.935,1.89c0,5.156-4.444,8.035-9.192,8.078a6.255,6.255,0,0,0,7.755.387c2.788-1.976,3.79-4.769,3.834-8.163C14.075,2.978,13.509,2.849,12.681,2.806Z" transform="translate(88.086 54.596)"/><path class="a" d="M.284,1.07A.6.6,0,0,1,.371.812a1.088,1.088,0,0,1,2-.258C5.469,3.819,11.393,3.347,15.75,2.745c1.089-.172,1.612.215,1.525,1.375C16.8,10.35,12.7,13.873,6.253,12.713.851,11.725-.718,5.882.284,1.07ZM1.156,2.4c-.174,2.019.3,5.886,1.917,7.433a4.618,4.618,0,0,0,5.315.687C10.7,9.19,12.352,7.385,12.657,4.593A19.8,19.8,0,0,1,1.156,2.4ZM13.7,4.507c.174,3.222-2.048,4.984-4.226,7.046,4.052-.773,6.143-3.351,6.23-7.347C15.1,4.292,14.487,4.378,13.7,4.507Z" transform="translate(59.052 55.602)"/><path class="b" d="M27.157,65.8c-5.271.816-11.763-.129-13.505-5.843-.7-2.234-.349-6.832.958-8.937a12.142,12.142,0,0,1,7.145-4.769,15.357,15.357,0,0,1,6.4.086C39.05,48.832,35.478,64.515,27.157,65.8Zm24.919-10.1a.6.6,0,0,1,.087-.258,1.088,1.088,0,0,1,2-.258c3.093,3.265,9.018,2.793,13.375,2.191,1.089-.172,1.612.215,1.525,1.375-.479,6.23-4.574,9.753-11.022,8.593C52.643,66.362,51.074,60.519,52.076,55.707ZM42.143,67.694c1.351-1.933,2.222-4.125,3.4-6.187,1-1.762,1.7-.644,1.83.687.261,2.406,1.612,6.617,3.355,8.12a13.586,13.586,0,0,0,8.844,3.566c4.052,0,8.016-.816,10.412-4.082A19.718,19.718,0,0,0,73.6,55.836c-.044-.559.087-1.418.436-1.59a3.181,3.181,0,0,1,2.091-.172c.261.086.349,1.074.349,1.676.044,2.234-.3,4.511.131,6.7.784,4.168,2.4,7.949,7.363,8.937a23.94,23.94,0,0,0,4.574.644c5.271.043,10.456-2.148,11.85-7.992.653-2.75,1.22-5.5,1.655-8.249.174-1.289.958-1.375,1.786-1.16.392.086.828.945.784,1.375-.218,1.762-.653,3.523-1,5.285-.61,3.437.044,6.488,2.745,8.98a12.278,12.278,0,0,0,7.188,3.437c5.925.816,10.412-.9,13.636-5.843.61-.945,1.83-.559,1.7.43a12.1,12.1,0,0,1-1.394,5.07,23.562,23.562,0,0,1-6.4,7.476c-.653.473-.915.559-1.612.129-5.533-3.351-11.2-6.1-17.818-6.874-5.184-.6-10.281-1.074-15.379.473-4.444,1.332-7.537,4.125-8.626,8.593-1.133,4.726.653,8.636,4.531,11.6a19.457,19.457,0,0,0,11.806,3.91c6.578.043,15.248-.172,21.391-2.707a19.858,19.858,0,0,0,7.929-5.714c3.616-4.211,7.493-8.206,9.367-13.577a77.666,77.666,0,0,0,2.657-8.163,24.4,24.4,0,0,0,.392-6.187,51.806,51.806,0,0,0-.566-5.156,38.288,38.288,0,0,0-.784-4.984c-.741-2.621-2-3.351-5.01-3.008-.131.6-.3,1.246-.436,1.89-.523,2.621-1,5.285-1.568,7.906-.828,3.867-3.4,6.316-8.321,6.1a7.481,7.481,0,0,1-7.319-8.378c.915-6.66,6.1-9.8,11.98-10.655,2.483-.344,5.01-.215,7.493-.43a1.621,1.621,0,0,0,1.176-.988,6.542,6.542,0,0,0-3.485-6.445,15.2,15.2,0,0,0-8.408-.9c-6.317,1.2-10.979,4.855-14.42,10.1-1.83,2.793-4.487,4.683-7.711,4.683-4.487,0-8.931-.816-13.418-1.375a1.5,1.5,0,0,1-1-2.363c1.83-2.965,7.058-4.6,9.584-1.676a3.592,3.592,0,0,0,.915.73c1.089.644,3.355,0,4.313-1.16.871-1.031.087-1.676-.523-2.277a10.738,10.738,0,0,0-8.234-3.48,15.877,15.877,0,0,0-9.236,3.566c-1.438,1.289-2.962,3.222-4.618,4.425a23.5,23.5,0,0,1-14.551,4.941c-1.83,0-4.879-1.117-4.792-3.308a7.359,7.359,0,0,1,.7-2.234c.958-2.148,3.224-2.363,5.315-2.277a6.967,6.967,0,0,1,6.1,3.394c2.4-1.5,2.44-3.308,1.089-4.941a9.667,9.667,0,0,0-4.966-3.008c-9.367-1.719-15.9,5.929-17.905,13.835-.479,1.89-1.612,1.5-2-.043-1.394-5.5-4.444-9.667-9.846-11.944-1.743-.73-.174-1.633.784-2.019,5.228-2.234,7.929-7.6,7.624-11.472A14.2,14.2,0,0,0,41.4,22.494c-2.962-4.468-7.929-6.23-13.026-7.218-6.056-1.16-10.543-.773-16.293-1.289-2.353-.215-3.659-1.2-4.182-2.535C7.378,10.034,7.814,7.285,9.077,6.3A2.265,2.265,0,0,1,11.6,5.91a1.26,1.26,0,0,1,.436,1.5c-.087.258-1.133,1.719-.741,2.75a2.841,2.841,0,0,0,1.7.773c1.046.172,2.875.129,3.616-.773.915-1.117,1.176-4.683.741-6.1A5.449,5.449,0,0,0,15,.926,11.2,11.2,0,0,0,7.073.539,9.326,9.326,0,0,0,1.628,4.621C-1.161,9.175,1.584,15.276,5.9,17.94c3.224,2.019,14.812,2.879,20,4.34,3.747.773,5.359,2.234,5.228,5.8-.087,3.179-3.05,6.4-5.838,7.691a62.17,62.17,0,0,1-7.972,2.75c-1.089.344-1.612-.387-1.394-1.461.61-3.179,1.263-6.316,1.83-9.5a2.565,2.565,0,0,0-.044-1.031c-.218-.9-1.83-1.418-3.006-1.461a3.907,3.907,0,0,0-3.877,3.094c-.566,2.062-.741,4.254-1.22,6.359-1.917,8.55-3.834,17.143-5.881,25.65C2.673,64.472,1.366,68.725.1,73.022c-.392,1.289.392,1.676,1.438,1.89a50.6,50.6,0,0,0,7.668,1.031C17.006,76.416,37.308,74.7,42.143,67.694ZM80.829,60a23.491,23.491,0,0,1,.7-5.5c.087-.387.436-1.074,1.655-.816,3.18.387,6.317.945,9.5,1.375,1.089.172,2.135.215,3.18.387,1.655.258,1.612.43,1.438,3.222-.3,2.879-1.394,6.273-5.4,8.035C86.667,68.94,80.917,65.546,80.829,60ZM95.99,89.349c-2.135-.3-5.838-1.762-7.058-3.652-1.176-1.762-.3-4.082,1.22-5.328,3.355-2.793,10.369-2.32,14.246-.387,1.176.6,2.309,1.289,3.442,1.976a37.107,37.107,0,0,1,3.964,2.879c.915.73.784,1.5-.392,1.848C107.012,87.931,100.565,89.993,95.99,89.349Z" transform="translate(7.26 0.965)"/><path class="b" d="M.274,51.327c.871,5.757,4.4,9.968,10.194,10.913,3.006.473,6.1.172,8.277-2.492,1.612-1.976,3.224-3.91,4.923-5.843.828-.988,1.917-.387,1.743.687a9.124,9.124,0,0,1-.871,3.051c-.7,1.16-.174,1.762.653,2.234,2,1.117,4.1,1.933,6.491,1.074,2.309-.859,4.574-1.719,5.751-4.168.349-.687,2.309-1.332,1.96.816a19.214,19.214,0,0,1-.958,2.793,10.889,10.889,0,0,0,5.881,1.933c4.792-.043,9.367-.988,11.632-6.015a1.387,1.387,0,0,1,1.176-.644c.3.043.7.73.7,1.117a30.717,30.717,0,0,1-.523,3.48c1.046.344,2.135.816,3.267,1.074,3.529.773,7.058,1.16,10.064-1.332,1.176-.945,2.091-2.234,3.18-3.308,1.133-1.117,2.135-.258,1.96.73-.218,1.375-.653,2.75-1.089,4.468a9.34,9.34,0,0,0,3.05,1.59c1.96.516,6.97-.387,8.8-1.031,3.964-1.418,7.319-3.437,6.927-7.992a20.773,20.773,0,0,0-4.1-9.195,2.372,2.372,0,0,0-2.44-.988c-1.655.387-1.7,2.062-1.873,3.437A3.615,3.615,0,0,1,82.7,50.769c-1.438.6-4.1.258-4.139-1.117-.3-2.621-.653-5.242-.7-7.863-.044-3.652.218-7.347.3-11,.044-1.2-.174-2.492-1.7-2.406a25.355,25.355,0,0,0-5.315,1.074c-1.655.516-2.091,1.633-1.7,3.351a22.519,22.519,0,0,1-.784,14.05,3.957,3.957,0,0,1-3.79,2.793c-1.525,0-4.182-.859-4.531-2.535a26.974,26.974,0,0,1-.392-4.168c-.261-3.652-.436-7.3-.741-10.956a1.542,1.542,0,0,0-.915-1.074c-1.7-.172-3.4-.258-5.1-.3-3.05-.086-2.832.559-2.527,2.965.392,2.664,1.176,5.285,1.612,7.949.392,2.535.349,7.863-1.176,9.71a3.919,3.919,0,0,1-4.531,1.074c-1.7-.73-2.135-2.277-2.135-3.91.044-6.832-.087-13.706.915-20.537a125.215,125.215,0,0,0,.741-15.682c.044-3.222-.523-6.4-3.921-8.035C39.135,2.69,36,1.358,32.861.155c-1.307-.516-2.178.3-2.265,1.719-.131,1.848,1.176,2.879,2.353,3.91,1.83,1.59,3.267,3.437,3.442,5.843.349,4.984.7,9.968.7,14.952S37,36.461,36.521,41.574a18.555,18.555,0,0,1-3.355,9.839c-.871,1.289-2.44.859-2.527-.773-.174-3.566-.349-7.089-.349-10.655,0-1.375-.044-3.652-1.133-4.64a6.979,6.979,0,0,0-1.873-1.074c-1.176-.559-1.96,0-2.222,1.5-.218,1.5-.392,3.008-.741,4.468-.958,3.867-2.265,7.562-5.576,10.14a7.4,7.4,0,0,1-7.842.43c-2.657-1.762-3.616-4.3-2.483-7.3a12.3,12.3,0,0,1,9.367-7.6,23.274,23.274,0,0,0,3.224-.43,1.428,1.428,0,0,0,.958-1.8,2.947,2.947,0,0,0-.436-1.074,5.94,5.94,0,0,0-4.923-2.621A14.977,14.977,0,0,0,5.851,34.485C1.189,38.867-.771,44.582.274,51.327Z" transform="translate(144.494 11.918)"/><path class="b" d="M27.185,4.495C21.434,8.748,15.6,12.744,7.8,12.056a2.979,2.979,0,0,0-2.135.773C3.79,14.806,2.091,16.955,0,19.4A38.983,38.983,0,0,0,4.618,22.2a32.1,32.1,0,0,0,9.672,2.535c5.838.644,11.414.043,16.511-2.922a4.285,4.285,0,0,0,1.917-2.363,59.516,59.516,0,0,0,1.743-9.152,44.084,44.084,0,0,0-.3-8.636C33.938-.232,32.587-.489,31.193.8A54.059,54.059,0,0,1,27.185,4.495Z" transform="translate(133.746 73.488)"/><path class="c" d="M4.192,48.971C8.722,32.988,12.643,16.918,15.78.635c.131-.516,0-.773-.7-.559-.915.43-2,.988-2.309,1.762a67.073,67.073,0,0,0-1.917,6.574c-1.176,4.425-2.265,8.894-3.572,13.276C5.106,28.992,2.58,36.167.532,43.471-.688,47.6.053,48.326,4.192,48.971Z" transform="translate(1.428 27.035)"/><path class="c" d="M0,1.025c5.446.3,8.408,5.757,7.145,10.441-.7,2.578-2.919,4.382-6.186,5.457C11.85,20.617,18.385,2.486,6.012.209,3.747-.221,1.394-.006,0,1.025Z" transform="translate(28.143 48.342)"/><path class="c" d="M26.2,32.912c2.353-1.16,4.531-2.707,5.446-5.371.741-2.234.436-4.082-1.394-4.941-2.657-1.289-12.285-2.879-15.553-3.351-4.749-.687-8.277-1.5-11.109-5.5C.582,9.538.321,3.824,4.242,0,.8,1.461-.768,5.8.364,10.054A12.365,12.365,0,0,0,9.6,18.776c4.836,1.16,9.323,1.461,14.289,2.965.828.258,1.612.516,2.44.773,3.267,1.16,3.79,2.836,1.481,6.445A11.589,11.589,0,0,1,20.8,34.115c-.828.43-1.046.6-.61,1.289C22.191,34.544,24.282,33.857,26.2,32.912Z" transform="translate(5.038 3.051)"/><path class="c" d="M4.226.3C4.4,3.523,2.178,5.285,0,7.347,4.052,6.574,6.143,4,6.23,0Z" transform="translate(68.528 59.808)"/><path class="c" d="M0,.249,5.881,3.17c.3.086.392-.086.174-.516C4.4.42,2.135-.482,0,.249Z" transform="translate(68.79 48.045)"/><path class="c" d="M7.652,8.636C3.556,7.218,2.206,3.781.855,0c-.3.988-1,2.019-.828,2.879C.681,5.543,4.646,8.464,7.652,8.636Z" transform="translate(52.251 65.651)"/><path class="c" d="M.78,10.542C2.174,6.2,4.135,2.55,7.968.187c.174-.172-.087-.215-.261-.172a2.319,2.319,0,0,0-.958.344C3.83,1.777,2,4.226.475,6.976A2.907,2.907,0,0,0,.78,10.542Z" transform="translate(52.849 43.036)"/><path class="c" d="M.522,0C-1,2.707,1.045,6.917,3.659,7.906c-.61-1.2-1.351-2.492-1.873-3.824C1.263,2.707.914,1.332.522,0Z" transform="translate(81.729 63.159)"/><path class="c" d="M0,8.077a6.255,6.255,0,0,0,7.755.387C10.543,6.488,11.545,3.7,11.588.3,10.543.172,9.976.043,9.149,0,9.192,5.113,4.749,8.035,0,8.077Z" transform="translate(91.574 57.402)"/><path class="c" d="M3.18,5.844A16.193,16.193,0,0,1,9.541,1.118,14.756,14.756,0,0,1,13.026.258C7.624-1.117,2.527,3.18,0,8.851A41.629,41.629,0,0,0,3.18,5.844Z" transform="translate(82.121 40.215)"/><path class="c" d="M18.3.047C15.684-.3,11.676,1.293,9.454,3.656,6.8,6.449,4.357,9.8,1.786,12.464A13.412,13.412,0,0,1,0,14.053,8.3,8.3,0,0,0,4.966,10.7C6.056,9.284,7.188,7.823,8.408,6.491A25.547,25.547,0,0,1,18.3.047Z" transform="translate(107.04 37.204)"/><path class="c" d="M7.493,5.457c-1,3.953-2.832,7.261-7.493,8.421,4.792,1.332,7.885.086,9.149-3.523a44.318,44.318,0,0,0,1.525-5.843A43.066,43.066,0,0,0,11.2,0C8.582,1.289,8.016,3.351,7.493,5.457Z" transform="translate(123.813 50.356)"/><path class="c" d="M5.054,0C3.006.559.61.559,0,3.136l1.307.644A19.435,19.435,0,0,0,5.054,0Z" transform="translate(126.34 76.865)"/><path class="c" d="M20.389,5.669C13.026-.991,3.572-1.377,0,2.4c3.137-.988,11.937-.516,17.905,3.437C18.428,6.142,19.3,5.8,20.389,5.669Z" transform="translate(97.586 81.035)"/><path class="c" d="M2.735,12.89C2.952,6.746,6.35,3.437,11.665.988A9.793,9.793,0,0,1,7.875,0,5.108,5.108,0,0,1,6.83,1.2c-.7.644-1.525,1.16-2.265,1.8a11.566,11.566,0,0,0-4.1,12.632C1.82,21.01,5.741,24.061,10.925,25.693,6,22.729,2.473,19.077,2.735,12.89Z" transform="translate(80.65 73.385)"/><path class="d" d="M27.072,5.628C17.706,6.488,8.557,6.445.672,0,.5.215.236.43.018.687c-.044.043,0,.215.044.43C8.339,6.96,17.27,8.808,27.072,5.628Z" transform="translate(132.073 93.794)"/><path class="d" d="M.455,15C6.293,14.317,8.6,6.8,9.386.4c.044-.473-.131-.473-.479-.258-.7.516-1.96,1.547-2.048,2.75C6.424,7.786,4.768,11.825.194,14.4-.2,14.875.063,14.961.455,15Z" transform="translate(159.038 47.296)"/><path class="d" d="M.844,12.374A42.717,42.717,0,0,1,3.153,7.648a24.023,24.023,0,0,1,3.4-4.425A41.525,41.525,0,0,1,10.777,0C7.6.73,4.808,2.75,2.107,5.886.408,7.906-.942,9.882.844,12.374Z" transform="translate(142.791 41.977)"/><path class="d" d="M7.189,34.673a26.966,26.966,0,0,1-1.525,10.14,13.067,13.067,0,0,0-1.089,5.07c.131.344.349.43.7.172C7.146,47.3,7.8,45.715,8.279,40.044c.131-1.719.218-3.437.3-5.156.174-3.609-.087-7.218-.131-10.827-.044-2.75-.044-5.5-.087-8.249C8.322,12.675,8.1,9.5,5.49,7.3,3.312,5.5,1.744,3.523,2.136.516,2.136.43,2.005.344,1.744,0A10.713,10.713,0,0,0,.393,1.547c-.828,1.5-.349,3.394,1.438,4.984a15.355,15.355,0,0,1,5.01,11.128C7.146,23.33,7.146,29,7.189,34.673Z" transform="translate(171.647 11.858)"/><path class="d" d="M2.178,7.976C2.875,11.843,3.485,15.71,0,18.76c1.743,1.117,3.311.644,4.1-1.16a11.052,11.052,0,0,0,.436-6.917c-.7-3.437-1.307-6.917-1.96-10.4C2.483-.1,2.309-.059,2.091.2a5.381,5.381,0,0,0-.7,3.308A32.016,32.016,0,0,0,2.178,7.976Z" transform="translate(190.991 43.411)"/><path class="d" d="M1.859,2.922c-.087,2.879.087,5.757.131,8.636.044,2.148.087,4.34-1.917,5.929-.174.43-.044.6.479.43a3.3,3.3,0,0,0,1.83-1.5,17.26,17.26,0,0,0,1.873-10.1c-.261-2.062-.7-4.125-1.046-6.144L2.817,0A10.925,10.925,0,0,0,1.859,2.922Z" transform="translate(209.085 42.321)"/><path class="d" d="M2.222,0C.218.988,0,2.75,0,5.027,2.4,3.7,1.568,1.547,2.222,0Z" transform="translate(226.41 56.328)"/></g></svg>